{"title":"The.Rachel.Maddow.Show.2013.03.28.+.29.+.Now.x264","uid":8321459,"size":519016572,"categoryP":"video","categoryS":"tv_shows","magnet":"?xt=urn:btih:5997da4fc29a96dccfbb72feacad21e0298e8335&amp;dn=The.Rachel.Maddow.Show.2013.03.28.%2B.29.%2B.Now.x264&amp;tr=udp%3A%2F%2Ftracker.openbittorrent.com%3A80&amp;tr=udp%3A%2F%2Fopen.demonii.com%3A1337&amp;tr=udp%3A%2F%2Ftracker.coppersurfer.tk%3A6969&amp;tr=udp%3A%2F%2Fexodus.desync.com%3A6969","seeders":1,"leechers":0,"uploader":null,"files":1,"time":1364681623,"description":"\nThe Rachel Maddow Show plus NOW With Alex Wagner - mkv\nMarch 28 and 29th  - 2013\nBoth days are joined into one file - 128 minutes\n\nThe Rachel Maddow Show March 28 starts the video\nThen the March 29th NOW With Alex Wagner starts at 42:50\nThen the March 29th Rachel Maddow Show starts at 1:24:51\n\nVideo\nSource \t\t\t\t : SDTV\nID                               : 1\nFormat                           : AVC\nFormat/Info                      : Advanced Video Codec\nFormat profile                   : &lt;a class=&quot;__cf_email__&quot; href=&quot;/cdn-cgi/l/email-protection&quot; data-cfemail=&quot;3870515f5078740b1608&quot;&gt;[email&amp;#160;protected]&lt;/a&gt;&lt;script cf-hash='f9e31' type=&quot;text/javascript&quot;&gt;\n/* &lt;![CDATA[ */!function(){try{var t=&quot;currentScript&quot;in document?document.currentScript:function(){for(var t=document.getElementsByTagName(&quot;script&quot;),e=t.length;e--;)if(t[e].getAttribute(&quot;cf-hash&quot;))return t[e]}();if(t&amp;&amp;t.previousSibling){var e,r,n,i,c=t.previousSibling,a=c.getAttribute(&quot;data-cfemail&quot;);if(a){for(e=&quot;&quot;,r=parseInt(a.substr(0,2),16),n=2;a.length-n;n+=2)i=parseInt(a.substr(n,2),16)^r,e+=String.fromCharCode(i);e=document.createTextNode(e),c.parentNode.replaceChild(e,c)}}}catch(u){}}();/* ]]&gt; */&lt;/script&gt;\nFormat settings, CABAC           : Yes\nFormat settings, ReFrames        : 5 frames\nCodec ID                         : V_MPEG4/ISO/AVC\nDuration                         : 2h 8mn\nBit rate                         : 450 Kbps\nWidth                            : 640 pixels\nHeight                           : 416 pixels\nDisplay aspect ratio             : 3:2\nFrame rate                       : 29.970 fps\nColor space                      : YUV\nChroma subsampling               : 4:2:0\nBit depth                        : 8 bits\nScan type                        : Progressive\nBits/(Pixel*Frame)               : 0.056\nStream size                      : 397 MiB (80%)\nWriting library                  : x264 core 120\nLanguage                         : English\n\n\nAudio\nID                               : 2\nFormat                           : Vorbis\nFormat settings, Floor           : 1\nCodec ID                         : A_VORBIS\nDuration                         : 2h 8mn\nBit rate mode                    : Variable\nBit rate                         : 96.0 Kbps\nChannel(s)                       : 2 channels\nSampling rate                    : 48.0 KHz\nCompression mode                 : Lossy\nStream size                      : 88.4 MiB (18%)\n","torrent":{"xt":"urn:btih:5997da4fc29a96dccfbb72feacad21e0298e8335","amp;dn":"The.Rachel.Maddow.Show.2013.03.28.%2B.29.%2B.Now.x264","amp;tr":["udp%3A%2F%2Ftracker.openbittorrent.com%3A80","udp%3A%2F%2Fopen.demonii.com%3A1337","udp%3A%2F%2Ftracker.coppersurfer.tk%3A6969","udp%3A%2F%2Fexodus.desync.com%3A6969"],"infoHash":"5997da4fc29a96dccfbb72feacad21e0298e8335","infoHashBuffer":{"type":"Buffer","data":[89,151,218,79,194,154,150,220,207,187,114,254,172,173,33,224,41,142,131,53]},"announce":[],"urlList":[]}}